<svg width="8.74" height="13.64" viewBox="0 0 8.74 13.64" xmlns="http://www.w3.org/2000/svg"><g id="svgGroup" stroke-linecap="round" fill-rule="nonzero" font-size="9pt" stroke="#000" stroke-width="0.25mm" fill="#ffffff" style="stroke:#000;stroke-width:0.25mm;fill:#ffffff"><path d="M 0 13.64 L 0 0 L 3.64 0 Q 5.596 0 6.576 0.656 A 2.419 2.419 0 0 1 6.77 0.8 A 2.531 2.531 0 0 1 7.592 2.087 Q 7.712 2.503 7.735 3.004 A 5.243 5.243 0 0 1 7.74 3.24 A 4.635 4.635 0 0 1 7.7 3.867 Q 7.655 4.198 7.558 4.48 A 2.736 2.736 0 0 1 7.53 4.56 A 5.497 5.497 0 0 1 7.337 5.016 Q 7.231 5.236 7.114 5.418 A 3.093 3.093 0 0 1 7.06 5.5 A 4.299 4.299 0 0 1 6.619 6.048 A 3.716 3.716 0 0 1 6.4 6.26 Q 6.88 6.44 7.3 6.72 Q 7.72 7 8.04 7.4 A 2.969 2.969 0 0 1 8.419 8.021 A 3.647 3.647 0 0 1 8.55 8.35 A 3.299 3.299 0 0 1 8.692 8.945 Q 8.734 9.228 8.739 9.548 A 5.627 5.627 0 0 1 8.74 9.64 A 5.463 5.463 0 0 1 8.6 10.89 A 4.967 4.967 0 0 1 8.52 11.19 Q 8.3 11.92 7.78 12.46 A 3.192 3.192 0 0 1 7.087 12.998 A 4.388 4.388 0 0 1 6.4 13.32 A 4.622 4.622 0 0 1 5.6 13.533 Q 5 13.64 4.26 13.64 L 0 13.64 Z M 1.68 7.32 L 1.68 12.14 L 4.4 12.14 A 4.076 4.076 0 0 0 5.152 12.075 Q 5.924 11.93 6.38 11.46 A 2.282 2.282 0 0 0 6.979 10.292 A 3.304 3.304 0 0 0 7.04 9.64 A 3.361 3.361 0 0 0 6.994 9.075 A 2.776 2.776 0 0 0 6.91 8.72 Q 6.78 8.3 6.46 7.99 Q 6.14 7.68 5.6 7.5 Q 5.18 7.36 4.603 7.329 A 6.372 6.372 0 0 0 4.26 7.32 L 1.68 7.32 Z M 1.68 1.5 L 1.68 5.92 L 5.02 5.92 A 1.944 1.944 0 0 0 5.331 5.609 A 2.533 2.533 0 0 0 5.52 5.34 Q 5.692 5.082 5.834 4.714 A 4.902 4.902 0 0 0 5.88 4.59 Q 6.015 4.211 6.036 3.698 A 4.771 4.771 0 0 0 6.04 3.5 Q 6.04 2.32 5.43 1.91 A 2.132 2.132 0 0 0 4.841 1.641 Q 4.573 1.562 4.252 1.527 A 4.967 4.967 0 0 0 3.72 1.5 L 1.68 1.5 Z" vector-effect="non-scaling-stroke"/></g></svg>