<!DOCTYPE svg PUBLIC "-//W3C//DTD SVG 1.1//EN" "http://www.w3.org/Graphics/SVG/1.1/DTD/svg11.dtd">
<!-- Uploaded to: SVG Repo, www.svgrepo.com, Transformed by: SVG Repo Mixer Tools -->
<svg fill="#fff" height="800px" width="800px" version="1.1" id="Layer_1" xmlns="http://www.w3.org/2000/svg" xmlns:xlink="http://www.w3.org/1999/xlink" viewBox="0 0 512 512" xml:space="preserve" stroke="#fff">
<g id="SVGRepo_bgCarrier" stroke-width="0"/>
<g id="SVGRepo_tracerCarrier" stroke-linecap="round" stroke-linejoin="round"/>
<g id="SVGRepo_iconCarrier"> <g> <g> <path d="M256,67.765c-141.386,0-256,94.353-256,180.706c0,43.272,28.785,65.852,75.294,77.615v42.856 c0,45.177,105.412,75.294,180.706,75.294s180.706-30.118,180.706-75.294v-42.856C483.215,314.323,512,291.742,512,248.471 C512,162.117,397.386,67.765,256,67.765z M391.529,326.085v37.793c-4.722,4.361-18.447,13.452-46.206,21.804 c-27.826,8.377-61.217,13.377-89.323,13.377s-61.497-5-89.323-13.377c-27.759-8.353-41.484-17.444-46.206-21.804v-37.793v-2.321 h271.059V326.085z M460.461,266.549c-3.439,3.31-10.008,7.767-22.35,12.04H73.888c-12.341-4.272-18.911-8.73-22.35-12.04 c-3.304-3.18-6.361-7.572-6.361-18.078c0-27.36,21.737-60.488,56.728-86.459c19.849-14.729,43.61-26.934,68.716-35.292 c27.469-9.144,56.195-13.779,85.379-13.779s57.91,4.635,85.379,13.779c25.106,8.358,48.867,20.561,68.716,35.292 c34.991,25.97,56.728,59.098,56.728,86.459C466.824,258.977,463.767,263.368,460.461,266.549z"/> </g> </g> <g> <g> <path d="M210.824,143.059v60.235c0,24.949,45.176,45.176,45.176,45.176s45.176-20.227,45.176-45.176v-60.235H210.824z"/> </g> </g> </g>
</svg>